<svg data-v-423bf9ae="" xmlns="http://www.w3.org/2000/svg" viewBox="0 0 186.18076048715056 200" class="iconAboveSlogan"><!----><!----><!----><g data-v-423bf9ae="" id="6a1b221f-452c-4d69-8c2d-7f21b9e7456f" fill="white" transform="matrix(5.830904006958008,0,0,5.830904006958008,-6.122450351715088,111.45767211914062)"><path d="M1.05 12.29L1.05 2.69L2.48 2.69L7.13 8.93L7.13 8.93Q7.28 9.14 7.53 9.53L7.53 9.53L7.60 9.51L7.59 8.81L7.59 2.69L9.06 2.69L9.06 12.29L7.66 12.29L3.00 5.98L3.00 5.98Q2.88 5.84 2.76 5.64L2.76 5.64L2.76 5.64Q2.63 5.45 2.58 5.36L2.58 5.36L2.51 5.38L2.52 6.09L2.52 12.29L1.05 12.29ZM12.96 12.46L12.96 12.46Q12.05 12.46 11.32 12.01L11.32 12.01L11.32 12.01Q10.58 11.56 10.58 10.39L10.58 10.39L10.58 10.39Q10.58 8.97 11.82 8.43L11.82 8.43L11.82 8.43Q13.05 7.88 15.34 7.88L15.34 7.88L15.34 7.15L15.34 7.15Q15.34 6.55 15.03 6.24L15.03 6.24L15.03 6.24Q14.71 5.92 13.86 5.92L13.86 5.92L13.86 5.92Q13.03 5.92 12.69 6.22L12.69 6.22L12.69 6.22Q12.35 6.51 12.35 6.93L12.35 6.93L12.35 7.11L10.95 7.11L10.95 7.11Q10.93 7.03 10.93 6.80L10.93 6.80L10.93 6.80Q10.93 5.84 11.75 5.30L11.75 5.30L11.75 5.30Q12.56 4.76 13.92 4.76L13.92 4.76L13.92 4.76Q15.34 4.76 16.07 5.35L16.07 5.35L16.07 5.35Q16.79 5.94 16.79 7.01L16.79 7.01L16.79 10.78L16.79 10.78Q16.79 11.03 16.93 11.15L16.93 11.15L16.93 11.15Q17.07 11.27 17.28 11.27L17.28 11.27L17.78 11.27L17.78 12.24L17.78 12.24Q17.42 12.42 16.79 12.42L16.79 12.42L16.79 12.42Q16.28 12.42 15.94 12.14L15.94 12.14L15.94 12.14Q15.60 11.87 15.48 11.40L15.48 11.40L15.39 11.40L15.39 11.40Q14.99 11.90 14.39 12.18L14.39 12.18L14.39 12.18Q13.78 12.46 12.96 12.46L12.96 12.46ZM13.38 11.28L13.38 11.28Q14.21 11.28 14.78 10.79L14.78 10.79L14.78 10.79Q15.34 10.29 15.34 9.42L15.34 9.42L15.34 8.97L15.34 8.97Q13.75 8.97 12.91 9.25L12.91 9.25L12.91 9.25Q12.07 9.52 12.07 10.28L12.07 10.28L12.07 10.28Q12.07 10.79 12.40 11.04L12.40 11.04L12.40 11.04Q12.73 11.28 13.38 11.28L13.38 11.28ZM18.84 12.29L18.84 2.17L20.29 2.17L20.29 5.77L20.38 5.77L20.38 5.77Q21.17 4.76 22.67 4.76L22.67 4.76L22.67 4.76Q25.00 4.76 25.00 7.29L25.00 7.29L25.00 12.29L23.56 12.29L23.56 7.48L23.56 7.48Q23.56 6.65 23.19 6.32L23.19 6.32L23.19 6.32Q22.82 5.99 22.11 5.99L22.11 5.99L22.11 5.99Q21.62 5.99 21.20 6.24L21.20 6.24L21.20 6.24Q20.78 6.48 20.53 6.93L20.53 6.93L20.53 6.93Q20.29 7.38 20.29 7.97L20.29 7.97L20.29 12.29L18.84 12.29ZM29.16 12.46L29.16 12.46Q26.82 12.46 26.82 9.93L26.82 9.93L26.82 4.93L28.27 4.93L28.27 9.74L28.27 9.74Q28.27 10.57 28.64 10.90L28.64 10.90L28.64 10.90Q29.01 11.23 29.72 11.23L29.72 11.23L29.72 11.23Q30.21 11.23 30.63 10.98L30.63 10.98L30.63 10.98Q31.05 10.74 31.30 10.29L31.30 10.29L31.30 10.29Q31.54 9.84 31.54 9.25L31.54 9.25L31.54 4.93L32.98 4.93L32.98 12.29L31.82 12.29L31.68 11.31L31.58 11.31L31.58 11.31Q31.18 11.87 30.56 12.17L30.56 12.17L30.56 12.17Q29.95 12.46 29.16 12.46L29.16 12.46Z"></path></g><!----><g data-v-423bf9ae="" id="117a715b-0316-47f1-88de-7b74f153ab6c" transform="matrix(1.1111092567443848,0,0,1.1111092567443848,46.603050231933594,0.4446401596069336)" stroke="none" fill="white"><path d="M67.83 64.129c.028-2.929.017-9.357-.493-15.71.045 2.677.115 5.127.206 6.409.051.735.163 4.585.287 9.301zM43.334 9.037c.087-2.058-.024-4.262 1.72-4.136.837.061 2.279.274 4.063.631 1.978.396 1.699 11.121 1.699 11.121l7.171 2.788c.236-7.761-1.704-16.773-3.64-17.325-3.244-.925-8.005-2.854-12.736-1.819-3.161.691-4.007 12.296-4.007 12.296l5.532 1.449s.058-1.712.198-5.005zM9.969 48.267c1.165.431 3.085 1.064 5.358 1.777 1.699-4.705 4.58-8.294 4.58-8.294s.665-1.743 4.006-1.041c3.341.701 3.497 2.226 3.497 2.226s-2.164 3.508-4.268 8.236c-.13.292-.301.655-.431 1.102 5.297 1.544 10.415 2.911 11.887 3.045 2.897.265 10.174.583 11.557-6.42 1.364-6.911 2.714-11.127 3.864-13.759.23-.575.437-1.051.589-1.395.313-.708 1.266-2.128 2.652-3.52v-.002c.004-.01.01-.015.018-.017 1.852-1.85 4.472-3.642 7.397-3.631.154 0 .342.019.551.051-1.721-1.914-3.682-3.544-5.77-4.349-.475-.183-17.718-6.998-22.87-6.269l-.419.06.419-.06s-11.811.293-19.621 8.097c-4.08 4.076-7.662 11.388-9.911 18.414-.029 1.783 2.246 4.023 6.915 5.749z"></path><path d="M33.018 60.553c-2.322-.426-6.635-1.608-11.232-2.967-.7 2.769-.105 7.525-.105 7.525s-.904 2.158-4.467 1.369c-3.036-.674-2.958-2.865-2.958-2.865s-.776-4.446-.092-8.359c-4.376-1.378-8.094-2.615-9.462-3.14-1.646-.63-2.833-1.508-3.688-2.489-.063.389-.119 1.96-.172 2.334-3.102 22.092 3.336 31.606 3.792 33.615.613 2.701 12.381 8.364 23.741 12.513 6.59 2.407 13.947 1.94 16.869 1.73l.214-.012c.465-8.542 1.731-30.777 2.352-44.384-.984 4.996-9.233 6.148-14.792 5.13zM67.83 64.129c-.124-4.716-.235-8.564-.287-9.303-.091-1.28-.161-3.73-.206-6.408-.455-5.656-1.913-11.727-3.16-14.882-2.096-5.312-8.183 1.351-9.902 5.546-1.78 4.344-3.465 54.419-3.629 59.383 4.25-1.107 10.338-2.696 11.084-3.867 1.581-2.476 2.438-4.873 2.833-6.914.262-1.359 3.777-2.63 3.777-2.63s-.249-10.8-.474-19.516l-.062.23c0 .002.017-.599.026-1.639z"></path><path d="M83.415 42.354s-.901-10.732-1.105-12.818c-.494-5.037-5.038-21.237-20.526-8.825l4.103 4.476s10.496-9.432 10.892 13.042c.033 1.902.159 4.559 1.303 20.549 1.266 17.679-5.648 17.777-5.648 17.777l.312 7.518s2.568-.672 5.22-1.788c3.753-1.581 7.349-8.198 7.349-17.897-.004-3.838-1.9-22.034-1.9-22.034zM29.176 12.348l3.424-.526V8.924l.659-2.37s-3.162 1.449-4.083 2.897c-.922 1.449-1.318 2.239-1.318 2.897 0 .659 1.318 0 1.318 0z"></path></g><!----><g data-v-423bf9ae="" id="c780695b-d94f-428b-8c27-9c3689104903" fill="white" transform="matrix(0.33426427841186523,0,0,0.33426427841186523,24.40191078186035,228.289306640625)"><path d="M2.24 6.19L2.24 14.03L3.47 14.03L3.47 14.03Q5.27 14.03 6.37 12.95L6.37 12.95L6.37 12.95Q7.46 11.87 7.46 10.12L7.46 10.12L7.46 10.12Q7.46 8.20 6.41 7.18L6.41 7.18L6.41 7.18Q5.36 6.16 3.42 6.16L3.42 6.16L3.42 6.16Q2.43 6.16 2.24 6.19L2.24 6.19ZM3.28 14.40L0.33 14.40L0.39 14.11L1.54 13.90L1.54 6.51L0.37 6.36L0.44 6.12L0.44 6.12Q2.52 5.79 3.68 5.79L3.68 5.79L3.68 5.79Q4.64 5.79 5.42 6.03L5.42 6.03L5.42 6.03Q6.19 6.26 6.71 6.66L6.71 6.66L6.71 6.66Q7.22 7.05 7.56 7.59L7.56 7.59L7.56 7.59Q7.90 8.13 8.05 8.71L8.05 8.71L8.05 8.71Q8.20 9.29 8.20 9.92L8.20 9.92L8.20 9.92Q8.20 10.64 8.03 11.28L8.03 11.28L8.03 11.28Q7.86 11.93 7.48 12.50L7.48 12.50L7.48 12.50Q7.10 13.08 6.53 13.49L6.53 13.49L6.53 13.49Q5.97 13.91 5.14 14.15L5.14 14.15L5.14 14.15Q4.31 14.40 3.28 14.40L3.28 14.40ZM17.14 6.36L15.92 6.18L15.97 5.89L22.16 5.89L21.95 8.07L21.64 8.03L21.51 6.24L17.86 6.24L17.86 9.89L20.15 9.89L20.40 8.94L20.77 8.89L20.54 11.55L20.19 11.61L20.08 10.26L17.86 10.26L17.86 14.03L21.70 14.03L22.20 12.19L22.48 12.26L22.28 14.40L15.94 14.40L15.98 14.11L17.14 13.90L17.14 6.36ZM31.18 6.34L30.17 6.14L30.20 5.89L33.10 5.89L33.07 6.14L31.92 6.32L34.29 13.30L36.87 6.34L35.59 6.14L35.62 5.89L38.28 5.89L38.25 6.14L37.37 6.32L34.36 14.47L34.01 14.57L31.18 6.34ZM47.20 6.36L45.98 6.18L46.03 5.89L52.22 5.89L52.01 8.07L51.69 8.03L51.56 6.24L47.91 6.24L47.91 9.89L50.20 9.89L50.46 8.94L50.83 8.89L50.60 11.55L50.25 11.61L50.14 10.26L47.91 10.26L47.91 14.03L51.75 14.03L52.26 12.19L52.54 12.26L52.34 14.40L46.00 14.40L46.04 14.11L47.20 13.90L47.20 6.36ZM66.42 14.40L60.27 14.40L60.30 14.11L61.46 13.90L61.46 6.34L60.28 6.17L60.31 5.90L63.42 5.90L63.39 6.17L62.19 6.32L62.19 14.03L65.81 14.03L66.34 12.09L66.64 12.14L66.42 14.40ZM75.13 9.75L75.13 9.75L75.13 9.75Q75.13 11.03 75.50 12.01L75.50 12.01L75.50 12.01Q75.86 13.00 76.58 13.57L76.58 13.57L76.58 13.57Q77.29 14.14 78.27 14.14L78.27 14.14L78.27 14.14Q78.85 14.14 79.34 13.92L79.34 13.92L79.34 13.92Q79.83 13.70 80.18 13.33L80.18 13.33L80.18 13.33Q80.52 12.96 80.76 12.49L80.76 12.49L80.76 12.49Q81.01 12.01 81.12 11.50L81.12 11.50L81.12 11.50Q81.24 10.99 81.24 10.48L81.24 10.48L81.24 10.48Q81.24 8.50 80.39 7.29L80.39 7.29L80.39 7.29Q79.54 6.07 78.09 6.07L78.09 6.07L78.09 6.07Q77.51 6.07 77.01 6.28L77.01 6.28L77.01 6.28Q76.52 6.49 76.18 6.85L76.18 6.85L76.18 6.85Q75.84 7.21 75.60 7.69L75.60 7.69L75.60 7.69Q75.36 8.16 75.25 8.69L75.25 8.69L75.25 8.69Q75.13 9.21 75.13 9.75ZM74.38 10.16L74.38 10.16L74.38 10.16Q74.38 8.16 75.48 6.92L75.48 6.92L75.48 6.92Q76.58 5.69 78.42 5.69L78.42 5.69L78.42 5.69Q79.55 5.69 80.37 6.27L80.37 6.27L80.37 6.27Q81.18 6.86 81.58 7.84L81.58 7.84L81.58 7.84Q81.98 8.83 81.98 10.11L81.98 10.11L81.98 10.11Q81.98 10.75 81.83 11.38L81.83 11.38L81.83 11.38Q81.68 12.00 81.35 12.58L81.35 12.58L81.35 12.58Q81.03 13.17 80.56 13.61L80.56 13.61L80.56 13.61Q80.10 14.05 79.43 14.32L79.43 14.32L79.43 14.32Q78.75 14.58 77.94 14.58L77.94 14.58L77.94 14.58Q76.89 14.58 76.07 13.98L76.07 13.98L76.07 13.98Q75.24 13.37 74.81 12.37L74.81 12.37L74.81 12.37Q74.38 11.37 74.38 10.16ZM93.11 14.40L89.70 14.40L89.74 14.11L90.82 13.90L90.82 6.51L89.71 6.36L89.77 6.12L89.77 6.12Q89.94 6.09 90.39 6.02L90.39 6.02L90.39 6.02Q90.84 5.94 91.06 5.91L91.06 5.91L91.06 5.91Q91.29 5.88 91.70 5.84L91.70 5.84L91.70 5.84Q92.11 5.81 92.53 5.81L92.53 5.81L92.53 5.81Q93.22 5.81 93.81 5.96L93.81 5.96L93.81 5.96Q94.40 6.10 94.86 6.40L94.86 6.40L94.86 6.40Q95.32 6.69 95.58 7.18L95.58 7.18L95.58 7.18Q95.84 7.66 95.84 8.29L95.84 8.29L95.84 8.29Q95.84 8.90 95.56 9.43L95.56 9.43L95.56 9.43Q95.28 9.97 94.82 10.33L94.82 10.33L94.82 10.33Q94.36 10.69 93.75 10.90L93.75 10.90L93.75 10.90Q93.15 11.10 92.52 11.10L92.52 11.10L92.52 11.10Q92.24 11.10 92.18 11.09L92.18 11.09L92.11 10.80L92.48 10.78L92.48 10.78Q93.14 10.75 93.64 10.55L93.64 10.55L93.64 10.55Q94.13 10.36 94.42 10.03L94.42 10.03L94.42 10.03Q94.71 9.70 94.85 9.30L94.85 9.30L94.85 9.30Q94.99 8.90 94.99 8.43L94.99 8.43L94.99 8.43Q94.99 7.98 94.82 7.57L94.82 7.57L94.82 7.57Q94.66 7.16 94.34 6.83L94.34 6.83L94.34 6.83Q94.01 6.50 93.49 6.31L93.49 6.31L93.49 6.31Q92.97 6.11 92.32 6.11L92.32 6.11L91.57 6.15L91.57 13.95L93.17 14.08L93.11 14.40ZM104.75 6.36L103.53 6.18L103.58 5.89L109.77 5.89L109.56 8.07L109.25 8.03L109.12 6.24L105.46 6.24L105.46 9.89L107.75 9.89L108.01 8.94L108.38 8.89L108.15 11.55L107.80 11.61L107.69 10.26L105.46 10.26L105.46 14.03L109.31 14.03L109.81 12.19L110.09 12.26L109.89 14.40L103.55 14.40L103.59 14.11L104.75 13.90L104.75 6.36ZM119.62 6.18L119.62 10.11L121.17 10.11L121.17 10.11Q121.86 9.86 122.32 9.28L122.32 9.28L122.32 9.28Q122.77 8.70 122.77 8.02L122.77 8.02L122.77 8.02Q122.77 7.11 122.15 6.63L122.15 6.63L122.15 6.63Q121.54 6.15 120.45 6.15L120.45 6.15L119.62 6.18ZM121.00 14.40L117.80 14.40L117.85 14.11L118.92 13.90L118.92 6.51L117.82 6.37L117.89 6.13L117.89 6.13Q119.71 5.83 120.79 5.83L120.79 5.83L120.79 5.83Q121.56 5.83 122.17 6.05L122.17 6.05L122.17 6.05Q122.77 6.27 123.15 6.73L123.15 6.73L123.15 6.73Q123.53 7.19 123.53 7.83L123.53 7.83L123.53 7.83Q123.53 8.57 123.10 9.14L123.10 9.14L123.10 9.14Q122.67 9.72 121.64 10.23L121.64 10.23L121.64 10.23L122.96 12.19L122.96 12.19Q123.67 13.23 124.01 13.58L124.01 13.58L124.01 13.58Q124.36 13.92 124.74 14.05L124.74 14.05L125.07 14.16L125.03 14.42L125.03 14.42Q124.74 14.52 124.39 14.52L124.39 14.52L124.39 14.52Q124.11 14.52 123.85 14.40L123.85 14.40L123.85 14.40Q123.60 14.28 123.36 14.01L123.36 14.01L123.36 14.01Q123.12 13.75 122.93 13.48L122.93 13.48L122.93 13.48Q122.75 13.22 122.47 12.77L122.47 12.77L121.08 10.49L119.62 10.49L119.62 13.95L121.06 14.08L121.00 14.40ZM132.87 16.32L132.79 16.01L132.79 16.01Q133.48 15.74 133.74 15.40L133.74 15.40L133.74 15.40Q134.00 15.06 134.00 14.60L134.00 14.60L134.00 14.60Q134.00 14.16 133.79 13.90L133.79 13.90L133.79 13.90Q133.57 13.63 133.26 13.63L133.26 13.63L133.26 13.63Q133.14 13.63 133.08 13.66L133.08 13.66L133.08 13.66Q133.05 13.60 133.05 13.53L133.05 13.53L133.05 13.53Q133.05 13.25 133.24 13.08L133.24 13.08L133.24 13.08Q133.42 12.91 133.71 12.91L133.71 12.91L133.71 12.91Q134.12 12.91 134.40 13.28L134.40 13.28L134.40 13.28Q134.69 13.66 134.69 14.33L134.69 14.33L134.69 14.33Q134.69 14.59 134.60 14.85L134.60 14.85L134.60 14.85Q134.51 15.11 134.32 15.39L134.32 15.39L134.32 15.39Q134.13 15.67 133.76 15.91L133.76 15.91L133.76 15.91Q133.38 16.15 132.87 16.32L132.87 16.32ZM153.59 6.36L152.37 6.18L152.41 5.89L158.61 5.89L158.40 8.07L158.08 8.03L157.95 6.24L154.30 6.24L154.30 9.89L156.59 9.89L156.84 8.94L157.21 8.89L156.99 11.55L156.64 11.61L156.53 10.26L154.30 10.26L154.30 14.03L158.14 14.03L158.65 12.19L158.93 12.26L158.72 14.40L152.39 14.40L152.43 14.11L153.59 13.90L153.59 6.36ZM167.88 6.36L166.62 6.14L166.67 5.89L168.75 5.89L173.47 13.17L173.47 6.33L172.22 6.16L172.26 5.89L175.16 5.89L175.10 6.16L173.97 6.32L173.97 14.44L173.60 14.52L168.39 6.65L168.39 13.95L169.65 14.08L169.58 14.40L166.70 14.40L166.74 14.11L167.88 13.90L167.88 6.36ZM182.87 10.27L182.87 10.27L182.87 10.27Q182.87 9.64 183.04 9.00L183.04 9.00L183.04 9.00Q183.21 8.36 183.56 7.78L183.56 7.78L183.56 7.78Q183.91 7.21 184.39 6.75L184.39 6.75L184.39 6.75Q184.86 6.30 185.53 6.04L185.53 6.04L185.53 6.04Q186.20 5.77 186.96 5.77L186.96 5.77L186.96 5.77Q187.69 5.77 188.40 5.94L188.40 5.94L188.40 5.94Q189.10 6.11 189.57 6.47L189.57 6.47L189.37 8.64L189.06 8.61L188.85 6.99L188.85 6.99Q188.58 6.65 188.04 6.41L188.04 6.41L188.04 6.41Q187.49 6.17 186.73 6.17L186.73 6.17L186.73 6.17Q185.32 6.17 184.48 7.27L184.48 7.27L184.48 7.27Q183.65 8.37 183.65 10.07L183.65 10.07L183.65 10.07Q183.65 10.69 183.76 11.25L183.76 11.25L183.76 11.25Q183.87 11.81 184.12 12.34L184.12 12.34L184.12 12.34Q184.37 12.87 184.75 13.25L184.75 13.25L184.75 13.25Q185.13 13.63 185.72 13.86L185.72 13.86L185.72 13.86Q186.31 14.09 187.04 14.09L187.04 14.09L187.04 14.09Q188.10 14.09 188.82 13.59L188.82 13.59L188.83 11.03L187.18 10.86L187.22 10.60L190.50 10.60L190.46 10.86L189.54 11.01L189.54 13.86L189.54 13.86Q188.89 14.25 188.15 14.39L188.15 14.39L188.15 14.39Q187.41 14.53 186.33 14.53L186.33 14.53L186.33 14.53Q185.62 14.53 184.99 14.23L184.99 14.23L184.99 14.23Q184.36 13.93 183.89 13.39L183.89 13.39L183.89 13.39Q183.42 12.85 183.15 12.04L183.15 12.04L183.15 12.04Q182.87 11.23 182.87 10.27ZM199.34 6.33L198.15 6.16L198.19 5.89L201.32 5.89L201.27 6.16L200.07 6.32L200.07 13.95L201.39 14.08L201.33 14.40L198.22 14.40L198.26 14.11L199.34 13.90L199.34 6.33ZM210.35 6.36L209.08 6.14L209.14 5.89L211.21 5.89L215.93 13.17L215.93 6.33L214.68 6.16L214.72 5.89L217.62 5.89L217.57 6.16L216.43 6.32L216.43 14.44L216.06 14.52L210.85 6.65L210.85 13.95L212.11 14.08L212.04 14.40L209.17 14.40L209.21 14.11L210.35 13.90L210.35 6.36ZM226.53 6.36L225.31 6.18L225.35 5.89L231.55 5.89L231.33 8.07L231.02 8.03L230.89 6.24L227.24 6.24L227.24 9.89L229.53 9.89L229.78 8.94L230.15 8.89L229.93 11.55L229.58 11.61L229.47 10.26L227.24 10.26L227.24 14.03L231.08 14.03L231.59 12.19L231.87 12.26L231.66 14.40L225.33 14.40L225.37 14.11L226.53 13.90L226.53 6.36ZM240.80 6.36L239.58 6.18L239.63 5.89L245.82 5.89L245.61 8.07L245.29 8.03L245.16 6.24L241.51 6.24L241.51 9.89L243.80 9.89L244.06 8.94L244.43 8.89L244.20 11.55L243.85 11.61L243.74 10.26L241.51 10.26L241.51 14.03L245.36 14.03L245.86 12.19L246.14 12.26L245.94 14.40L239.60 14.40L239.64 14.11L240.80 13.90L240.80 6.36ZM255.67 6.18L255.67 10.11L257.22 10.11L257.22 10.11Q257.91 9.86 258.36 9.28L258.36 9.28L258.36 9.28Q258.82 8.70 258.82 8.02L258.82 8.02L258.82 8.02Q258.82 7.11 258.20 6.63L258.20 6.63L258.20 6.63Q257.58 6.15 256.50 6.15L256.50 6.15L255.67 6.18ZM257.04 14.40L253.85 14.40L253.90 14.11L254.97 13.90L254.97 6.51L253.87 6.37L253.93 6.13L253.93 6.13Q255.76 5.83 256.84 5.83L256.84 5.83L256.84 5.83Q257.61 5.83 258.21 6.05L258.21 6.05L258.21 6.05Q258.82 6.27 259.20 6.73L259.20 6.73L259.20 6.73Q259.57 7.19 259.57 7.83L259.57 7.83L259.57 7.83Q259.57 8.57 259.15 9.14L259.15 9.14L259.15 9.14Q258.72 9.72 257.69 10.23L257.69 10.23L257.69 10.23L259.01 12.19L259.01 12.19Q259.72 13.23 260.06 13.58L260.06 13.58L260.06 13.58Q260.41 13.92 260.79 14.05L260.79 14.05L261.12 14.16L261.08 14.42L261.08 14.42Q260.78 14.52 260.44 14.52L260.44 14.52L260.44 14.52Q260.16 14.52 259.90 14.40L259.90 14.40L259.90 14.40Q259.65 14.28 259.41 14.01L259.41 14.01L259.41 14.01Q259.16 13.75 258.98 13.48L258.98 13.48L258.98 13.48Q258.79 13.22 258.52 12.77L258.52 12.77L257.13 10.49L255.67 10.49L255.67 13.95L257.11 14.08L257.04 14.40ZM269.97 6.33L268.79 6.16L268.83 5.89L271.95 5.89L271.91 6.16L270.71 6.32L270.71 13.95L272.03 14.08L271.97 14.40L268.86 14.40L268.89 14.11L269.97 13.90L269.97 6.33ZM280.98 6.36L279.72 6.14L279.77 5.89L281.85 5.89L286.57 13.17L286.57 6.33L285.32 6.16L285.36 5.89L288.26 5.89L288.20 6.16L287.07 6.32L287.07 14.44L286.70 14.52L281.49 6.65L281.49 13.95L282.75 14.08L282.68 14.40L279.80 14.40L279.84 14.11L280.98 13.90L280.98 6.36ZM295.97 10.27L295.97 10.27L295.97 10.27Q295.97 9.64 296.14 9.00L296.14 9.00L296.14 9.00Q296.31 8.36 296.66 7.78L296.66 7.78L296.66 7.78Q297.01 7.21 297.49 6.75L297.49 6.75L297.49 6.75Q297.96 6.30 298.63 6.04L298.63 6.04L298.63 6.04Q299.30 5.77 300.06 5.77L300.06 5.77L300.06 5.77Q300.79 5.77 301.50 5.94L301.50 5.94L301.50 5.94Q302.20 6.11 302.67 6.47L302.67 6.47L302.47 8.64L302.16 8.61L301.95 6.99L301.95 6.99Q301.68 6.65 301.14 6.41L301.14 6.41L301.14 6.41Q300.59 6.17 299.83 6.17L299.83 6.17L299.83 6.17Q298.42 6.17 297.59 7.27L297.59 7.27L297.59 7.27Q296.75 8.37 296.75 10.07L296.75 10.07L296.75 10.07Q296.75 10.69 296.86 11.25L296.86 11.25L296.86 11.25Q296.97 11.81 297.22 12.34L297.22 12.34L297.22 12.34Q297.47 12.87 297.85 13.25L297.85 13.25L297.85 13.25Q298.23 13.63 298.82 13.86L298.82 13.86L298.82 13.86Q299.41 14.09 300.14 14.09L300.14 14.09L300.14 14.09Q301.20 14.09 301.92 13.59L301.92 13.59L301.93 11.03L300.28 10.86L300.32 10.60L303.60 10.60L303.56 10.86L302.64 11.01L302.64 13.86L302.64 13.86Q301.99 14.25 301.25 14.39L301.25 14.39L301.25 14.39Q300.51 14.53 299.43 14.53L299.43 14.53L299.43 14.53Q298.72 14.53 298.09 14.23L298.09 14.23L298.09 14.23Q297.46 13.93 296.99 13.39L296.99 13.39L296.99 13.39Q296.52 12.85 296.25 12.04L296.25 12.04L296.25 12.04Q295.97 11.23 295.97 10.27ZM321.19 13.60L321.19 13.60L321.40 11.66L321.73 11.71L321.92 13.21L321.92 13.21Q322.14 13.64 322.67 13.89L322.67 13.89L322.67 13.89Q323.20 14.14 323.80 14.14L323.80 14.14L323.80 14.14Q324.49 14.14 324.97 13.74L324.97 13.74L324.97 13.74Q325.45 13.33 325.45 12.61L325.45 12.61L325.45 12.61Q325.45 12.20 325.23 11.83L325.23 11.83L325.23 11.83Q325.01 11.46 324.67 11.18L324.67 11.18L324.67 11.18Q324.32 10.90 323.90 10.63L323.90 10.63L323.90 10.63Q323.48 10.36 323.07 10.07L323.07 10.07L323.07 10.07Q322.65 9.79 322.30 9.48L322.30 9.48L322.30 9.48Q321.96 9.17 321.74 8.75L321.74 8.75L321.74 8.75Q321.53 8.33 321.53 7.84L321.53 7.84L321.53 7.84Q321.53 6.88 322.22 6.29L322.22 6.29L322.22 6.29Q322.92 5.71 323.80 5.71L323.80 5.71L323.80 5.71Q324.39 5.71 324.93 5.90L324.93 5.90L324.93 5.90Q325.47 6.09 325.79 6.46L325.79 6.46L325.57 8.58L325.25 8.53L325.07 6.87L325.07 6.87Q324.88 6.54 324.47 6.32L324.47 6.32L324.47 6.32Q324.05 6.10 323.62 6.10L323.62 6.10L323.62 6.10Q323.03 6.10 322.61 6.48L322.61 6.48L322.61 6.48Q322.20 6.87 322.20 7.52L322.20 7.52L322.20 7.52Q322.20 7.96 322.42 8.35L322.42 8.35L322.42 8.35Q322.64 8.74 322.99 9.03L322.99 9.03L322.99 9.03Q323.35 9.32 323.77 9.61L323.77 9.61L323.77 9.61Q324.19 9.89 324.62 10.17L324.62 10.17L324.62 10.17Q325.05 10.45 325.40 10.75L325.40 10.75L325.40 10.75Q325.75 11.05 325.98 11.45L325.98 11.45L325.98 11.45Q326.20 11.85 326.20 12.29L326.20 12.29L326.20 12.29Q326.20 13.28 325.45 13.93L325.45 13.93L325.45 13.93Q324.69 14.57 323.45 14.57L323.45 14.57L323.45 14.57Q322.74 14.57 322.14 14.30L322.14 14.30L322.14 14.30Q321.54 14.03 321.19 13.60ZM333.98 8.09L333.91 5.89L340.97 5.89L340.73 8.16L340.39 8.12L340.27 6.24L337.74 6.24L337.74 13.90L338.95 14.08L338.87 14.40L335.77 14.40L335.81 14.11L337.00 13.90L337.00 6.24L334.57 6.24L334.33 8.15L333.98 8.09ZM349.89 6.33L348.65 6.16L348.68 5.89L351.78 5.89L351.76 6.16L350.60 6.32L350.60 11.01L350.60 11.01Q350.60 11.87 350.78 12.49L350.78 12.49L350.78 12.49Q350.96 13.10 351.31 13.45L351.31 13.45L351.31 13.45Q351.66 13.79 352.11 13.95L352.11 13.95L352.11 13.95Q352.56 14.11 353.14 14.11L353.14 14.11L353.14 14.11Q354.32 14.11 354.96 13.40L354.96 13.40L354.96 13.40Q355.61 12.68 355.61 11.33L355.61 11.33L355.61 6.33L354.33 6.16L354.37 5.89L357.27 5.89L357.22 6.16L356.08 6.32L356.06 11.05L356.06 11.05Q356.06 12.78 355.32 13.68L355.32 13.68L355.32 13.68Q354.58 14.58 352.92 14.58L352.92 14.58L352.92 14.58Q352.42 14.58 352.00 14.49L352.00 14.49L352.00 14.49Q351.57 14.40 351.18 14.16L351.18 14.16L351.18 14.16Q350.78 13.93 350.50 13.56L350.50 13.56L350.50 13.56Q350.23 13.19 350.06 12.60L350.06 12.60L350.06 12.60Q349.89 12.01 349.89 11.24L349.89 11.24L349.89 6.33ZM366.85 6.19L366.85 14.03L368.08 14.03L368.08 14.03Q369.89 14.03 370.98 12.95L370.98 12.95L370.98 12.95Q372.08 11.87 372.08 10.12L372.08 10.12L372.08 10.12Q372.08 8.20 371.03 7.18L371.03 7.18L371.03 7.18Q369.97 6.16 368.04 6.16L368.04 6.16L368.04 6.16Q367.04 6.16 366.85 6.19L366.85 6.19ZM367.90 14.40L364.95 14.40L365.00 14.11L366.16 13.90L366.16 6.51L364.98 6.36L365.05 6.12L365.05 6.12Q367.14 5.79 368.29 5.79L368.29 5.79L368.29 5.79Q369.26 5.79 370.03 6.03L370.03 6.03L370.03 6.03Q370.81 6.26 371.32 6.66L371.32 6.66L371.32 6.66Q371.83 7.05 372.18 7.59L372.18 7.59L372.18 7.59Q372.52 8.13 372.67 8.71L372.67 8.71L372.67 8.71Q372.82 9.29 372.82 9.92L372.82 9.92L372.82 9.92Q372.82 10.64 372.65 11.28L372.65 11.28L372.65 11.28Q372.48 11.93 372.09 12.50L372.09 12.50L372.09 12.50Q371.71 13.08 371.15 13.49L371.15 13.49L371.15 13.49Q370.58 13.91 369.75 14.15L369.75 14.15L369.75 14.15Q368.92 14.40 367.90 14.40L367.90 14.40ZM381.76 6.36L380.54 6.18L380.58 5.89L386.78 5.89L386.57 8.07L386.25 8.03L386.12 6.24L382.47 6.24L382.47 9.89L384.76 9.89L385.01 8.94L385.38 8.89L385.16 11.55L384.81 11.61L384.70 10.26L382.47 10.26L382.47 14.03L386.31 14.03L386.82 12.19L387.10 12.26L386.89 14.40L380.56 14.40L380.60 14.11L381.76 13.90L381.76 6.36ZM396.05 6.36L394.79 6.14L394.84 5.89L396.92 5.89L401.64 13.17L401.64 6.33L400.39 6.16L400.43 5.89L403.33 5.89L403.27 6.16L402.14 6.32L402.14 14.44L401.77 14.52L396.56 6.65L396.56 13.95L397.82 14.08L397.75 14.40L394.87 14.40L394.91 14.11L396.05 13.90L396.05 6.36ZM411.07 8.09L411.00 5.89L418.07 5.89L417.83 8.16L417.48 8.12L417.37 6.24L414.83 6.24L414.83 13.90L416.04 14.08L415.97 14.40L412.87 14.40L412.90 14.11L414.10 13.90L414.10 6.24L411.67 6.24L411.43 8.15L411.07 8.09Z"></path></g></svg>